<svg xmlns="http://www.w3.org/2000/svg" viewBox="0 0 512 512">
  <defs>
    <linearGradient id="g" x1="0" y1="0" x2="1" y2="1">
      <stop offset="0" stop-color="#06111f"/><stop offset="1" stop-color="#02060c"/>
    </linearGradient>
    <filter id="s"><feDropShadow dx="0" dy="18" stdDeviation="16" flood-opacity=".45"/></filter>
  </defs>
  <rect width="512" height="512" rx="110" fill="url(#g)"/>
  <circle cx="256" cy="248" r="190" fill="#0e8cff" opacity=".14"/>
  <g filter="url(#s)">
    <rect x="74" y="112" width="132" height="132" rx="22" fill="#ff3b22"/>
    <rect x="190" y="76" width="132" height="132" rx="22" fill="#ffd024"/>
    <rect x="306" y="112" width="132" height="132" rx="22" fill="#168dff"/>
    <rect x="132" y="236" width="132" height="132" rx="22" fill="#24d64d"/>
    <rect x="248" y="236" width="132" height="132" rx="22" fill="#7f4dff"/>
    <g fill="#fff" opacity=".35">
      <circle cx="112" cy="150" r="13"/><circle cx="168" cy="150" r="13"/><circle cx="112" cy="206" r="13"/><circle cx="168" cy="206" r="13"/>
      <circle cx="228" cy="114" r="13"/><circle cx="284" cy="114" r="13"/><circle cx="228" cy="170" r="13"/><circle cx="284" cy="170" r="13"/>
      <circle cx="344" cy="150" r="13"/><circle cx="400" cy="150" r="13"/><circle cx="344" cy="206" r="13"/><circle cx="400" cy="206" r="13"/>
      <circle cx="170" cy="274" r="13"/><circle cx="226" cy="274" r="13"/><circle cx="170" cy="330" r="13"/><circle cx="226" cy="330" r="13"/>
      <circle cx="286" cy="274" r="13"/><circle cx="342" cy="274" r="13"/><circle cx="286" cy="330" r="13"/><circle cx="342" cy="330" r="13"/>
    </g>
  </g>
  <text x="256" y="438" text-anchor="middle" font-family="Arial, sans-serif" font-size="76" font-weight="900" fill="#fff">MES</text>
</svg>